<svg width="132" height="48" viewBox="0 0 132 48" fill="none" xmlns="http://www.w3.org/2000/svg">
<path d="M70.4736 11.8449H77.1909V35.5335H72.2133V19.6036L65.8455 35.5335L59.1436 19.5835V35.5335H54.499V11.8449H61.1381L65.9246 24.1059L70.4736 11.8449Z" fill="#231F20"/>
<path d="M79.6663 11.8449V35.5335H92.1751V31.5175H84.5155V25.4909H91.8584V21.437H84.5155V16.0022H92.1751V11.8449H79.6663Z" fill="#231F20"/>
<path d="M93.8315 23.6934C93.8315 32.5112 102.254 39.5674 111.128 34.8478V29.7727C104.299 34.9997 98.3555 29.7607 98.453 23.8959C98.5195 19.9981 100.917 16.2912 105.554 16.0022C107.834 15.8607 109.378 16.4801 111.128 18.3103V13.0327C104.716 8.88061 93.8315 13.4504 93.8315 23.6934Z" fill="#231F20"/>
<path d="M113.174 35.5334H117.785V12.0727H113.174V35.5334Z" fill="#231F20"/>
<path d="M123.571 22.8305L130.538 12.1244H125.153L118.25 22.8104L126.264 35.5335H131.552L123.571 22.8305Z" fill="#231F20"/>
<path d="M10.8396 11.8453C10.8396 5.3029 15.6937 0 21.6802 0C27.6686 0 32.5207 5.3029 32.5207 11.8453H10.8396ZM10.8396 35.535C10.8396 28.9936 15.6937 23.6897 21.6802 23.6897C15.6937 23.6897 10.8396 18.3878 10.8396 11.8453C4.85311 11.8453 0 17.1483 0 23.6897C0 30.2331 4.85311 35.535 10.8396 35.535ZM10.8396 35.535C10.8396 42.0785 15.6937 47.3804 21.6802 47.3804C27.6686 47.3804 32.5207 42.0785 32.5207 35.535H10.8396ZM21.6802 23.6897C27.6686 23.6897 32.5207 28.9936 32.5207 35.535C38.5082 35.535 43.3622 30.2331 43.3622 23.6897C43.3622 17.1483 38.5082 11.8453 32.5207 11.8453C32.5207 18.3878 27.6686 23.6897 21.6802 23.6897Z" fill="#1B2856"/>
</svg>
