<svg width="45" height="44" viewBox="0 0 45 44" fill="none" xmlns="http://www.w3.org/2000/svg">
<path d="M1.16895 22C1.16895 24.7578 1.71213 27.4885 2.76747 30.0364C3.82282 32.5842 5.36967 34.8992 7.3197 36.8492C9.26973 38.7993 11.5848 40.3461 14.1326 41.4015C16.6804 42.4568 19.4112 43 22.1689 43C24.9267 43 27.6575 42.4568 30.2053 41.4015C32.7531 40.3461 35.0682 38.7993 37.0182 36.8492C38.9682 34.8992 40.5151 32.5842 41.5704 30.0364C42.6258 27.4885 43.1689 24.7578 43.1689 22C43.1689 19.2422 42.6258 16.5115 41.5704 13.9636C40.5151 11.4158 38.9682 9.10079 37.0182 7.15076C35.0682 5.20073 32.7531 3.65388 30.2053 2.59853C27.6575 1.54318 24.9267 1 22.1689 1C19.4112 1 16.6804 1.54318 14.1326 2.59853C11.5848 3.65388 9.26973 5.20073 7.3197 7.15076C5.36967 9.10079 3.82282 11.4158 2.76747 13.9636C1.71213 16.5115 1.16895 19.2422 1.16895 22Z" stroke="black" stroke-width="2" stroke-linecap="round" stroke-linejoin="round"/>
<path d="M8.56104 37.981C9.13856 36.0589 10.3203 34.3741 11.9309 33.1766C13.5416 31.9791 15.4953 31.3328 17.5024 31.3333H26.8357C28.8453 31.3326 30.8015 31.9806 32.4133 33.1808C34.0251 34.3811 35.2065 36.0695 35.7817 37.995M15.169 17.3333C15.169 19.1899 15.9065 20.9703 17.2193 22.2831C18.532 23.5958 20.3125 24.3333 22.169 24.3333C24.0256 24.3333 25.806 23.5958 27.1188 22.2831C28.4315 20.9703 29.169 19.1899 29.169 17.3333C29.169 15.4768 28.4315 13.6964 27.1188 12.3836C25.806 11.0708 24.0256 10.3333 22.169 10.3333C20.3125 10.3333 18.532 11.0708 17.2193 12.3836C15.9065 13.6964 15.169 15.4768 15.169 17.3333Z" stroke="black" stroke-width="2" stroke-linecap="round" stroke-linejoin="round"/>
</svg>
